<svg width="31" height="31" viewBox="0 0 31 31" fill="none" xmlns="http://www.w3.org/2000/svg">
<path fill-rule="evenodd" clip-rule="evenodd" d="M17.4506 4.99984C17.4894 4.85061 17.607 4.73474 17.7568 4.69823L23.5728 3.2809C23.6497 3.26215 23.7188 3.33232 23.6989 3.40897L21.8505 10.5166L16.8882 14.3847L15.3177 13.2126L17.4506 4.99984ZM14.4256 12.5467L15.902 6.86942C15.9219 6.79277 15.8528 6.7226 15.7759 6.74135L9.95993 8.15868C9.81013 8.19519 9.6925 8.31106 9.65375 8.46029L8.59509 12.5367L10.4396 10.6922C10.8079 10.3238 11.3908 10.2817 11.8082 10.5933L14.4256 12.5467ZM6.26366 21.5139L11.2048 14.6666L13.2708 16.9872L10.931 25.9845C10.8924 26.1331 10.7755 26.2487 10.6265 26.2856L4.80968 27.7276C4.73264 27.7467 4.6632 27.6765 4.68315 27.5996L6.26366 21.5139ZM14.0966 17.9147L16.1177 20.185C16.5311 20.6492 17.2552 20.6541 17.6747 20.1954L19.9926 17.661L18.7279 22.5241C18.6893 22.6727 18.5724 22.7882 18.4234 22.8251L12.6066 24.2671C12.5295 24.2862 12.4601 24.216 12.48 24.1392L14.0966 17.9147Z" fill="#F5D919"/>
<path fill-rule="evenodd" clip-rule="evenodd" d="M28.656 6.65398C28.7882 6.78619 28.793 6.99904 28.6668 7.13702L17.157 19.722C17.0172 19.8749 16.7758 19.8732 16.6381 19.7185L11.4355 13.8748C11.2869 13.7079 11.0219 13.7214 10.8911 13.9027L4.88502 22.2256C4.75903 22.4002 4.50667 22.4205 4.35443 22.2682L2.34871 20.2625C2.21222 20.126 2.21222 19.9047 2.34871 19.7682L10.9321 11.1848C11.0549 11.0621 11.2491 11.048 11.3883 11.1519L16.682 15.1027C16.8081 15.1969 16.9817 15.1951 17.1059 15.0983L28.0983 6.52974C28.2374 6.42129 28.4355 6.43352 28.5603 6.55826L28.656 6.65398Z" fill="#F5D919"/>
</svg>
